<svg aria-hidden="true" style="position:absolute;width:0;height:0" xmlns="http://www.w3.org/2000/svg" overflow="hidden"><defs><symbol id="icon-facebook" viewBox="0 0 15 32"><path d="M14.982.013v5.146s-3.793-.375-4.746 1.074c-.52.799-.211 3.123-.257 4.796h5.032c-.425 1.948-.729 3.272-1.043 4.971H9.951v15.988H2.979V16.063H.013v-5.034h2.934c.15-3.685.206-7.332 2.035-9.18C7.038-.237 9.001.013 14.983.013z"/></symbol><symbol id="icon-instagram" viewBox="0 0 32 32"><path d="M27.962 31.988H3.981a3.997 3.997 0 01-3.997-3.997V4.01A3.997 3.997 0 013.981.013h23.981a3.997 3.997 0 013.997 3.997v23.981a3.997 3.997 0 01-3.997 3.997zM15.971 9.805h-.001a6.187 6.187 0 00-5.603 3.559l-.016.038a.343.343 0 01-.028.064l.001-.001c-.059.137-.11.275-.16.412-.024.062-.05.125-.071.187-.046.137-.084.287-.125.425a4.512 4.512 0 00-.052.2c-.032.15-.055.3-.076.462-.009.062-.021.125-.029.187a5.87 5.87 0 00-.036.661V16a6.195 6.195 0 1012.39 0 6.56 6.56 0 00-.039-.691l.003.029c-.008-.062-.02-.125-.029-.187a5.709 5.709 0 00-.076-.462 8.453 8.453 0 00-.052-.2c-.035-.137-.072-.287-.125-.425-.021-.062-.047-.125-.071-.187a7.763 7.763 0 00-.16-.412.297.297 0 01-.027-.06l-.001-.002c-1.004-2.14-3.139-3.596-5.615-3.597zm12.391-4.597v-.003c0-.882-.715-1.596-1.596-1.596h-3.203c-.882 0-1.596.715-1.596 1.596v3.203c0 .882.715 1.596 1.596 1.596h3.203c.882 0 1.596-.715 1.596-1.596v-3.2zm0 8.194h-2.948c.222.778.35 1.671.35 2.594 0 5.408-4.384 9.792-9.792 9.792S6.18 21.404 6.18 15.996c0-.923.128-1.816.366-2.663l-.017.069H3.581v13.393c0 .882.715 1.596 1.596 1.596h21.589c.882 0 1.596-.715 1.596-1.596V13.402z"/></symbol><symbol id="icon-pinterest" viewBox="0 0 24 32"><path d="M10.173 20.771c-.261 1.049-.525 2.136-.797 3.197a23.478 23.478 0 01-.95 3.249l.054-.163a15.88 15.88 0 01-2.574 4.436l.022-.027c-.718.824-.566.5-.782.45-.165-.037-.179-.2-.211-.425a24.211 24.211 0 01.016-4.266l-.007.094c.115-1.598.376-3.08.774-4.506l-.038.159c.605-2.573 1.182-5.096 1.792-7.694.063-.162.104-.35.112-.546v-.004a7.84 7.84 0 01-.532-2.086l-.003-.037a6.8 6.8 0 01.184-2.483l-.011.047a4.044 4.044 0 012.34-2.913l.026-.01a2.747 2.747 0 012.182.182l-.015-.007a2.32 2.32 0 011.081 1.534l.002.015a5.598 5.598 0 01-.108 2.4l.009-.039c-.334 1.524-.772 2.673-1.17 4.134a4.597 4.597 0 00-.233 2.287l-.003-.025a2.654 2.654 0 001.05 1.593l.008.005a3.09 3.09 0 002.04.574l-.01.001a4.466 4.466 0 003.301-1.945l.01-.016a11.521 11.521 0 002.09-5.819l.002-.039a14.831 14.831 0 00.086-2.547l.002.037a6.815 6.815 0 00-1.419-3.913l.012.016a6.62 6.62 0 00-3.091-2.123l-.047-.013a10.12 10.12 0 00-2.958-.432c-.608 0-1.205.053-1.784.153l.062-.009A8.284 8.284 0 004.57 7.61l-.022.046a8.733 8.733 0 00-1.046 4.173v.091-.005a5.524 5.524 0 00.86 3.146l-.013-.022c.166.25.41.462.572.749a2.132 2.132 0 01-.154 1.461l.006-.013c-.137.537-.152 1.262-.772 1.274a1.714 1.714 0 01-.802-.303l.005.004a6.394 6.394 0 01-3.022-4.64l-.003-.032c-.118-.607-.185-1.304-.185-2.017s.067-1.411.196-2.086l-.011.069a11.591 11.591 0 015.442-7.652l.054-.029A12.78 12.78 0 0110.488.158l.067-.007c.59-.089 1.283-.147 1.987-.162h.018a11.993 11.993 0 015.48 1.029l-.076-.03c1.461.655 2.7 1.562 3.714 2.676l.008.009a10.137 10.137 0 012.273 4.063l.017.072c.292.849.472 1.829.499 2.847v.013a17.325 17.325 0 01-.407 3.076l.022-.116a11.66 11.66 0 01-4.759 8.033l-.035.024a8.568 8.568 0 01-5.012 1.374h.016a5.785 5.785 0 01-2.506-.739l.029.015a4.161 4.161 0 01-1.637-1.543l-.01-.019z"/></symbol><symbol id="icon-twitter" viewBox="0 0 39 32"><path d="M26.811.015a8.277 8.277 0 016.387 2.537l.003.003a13.3 13.3 0 004.212-1.436l-.07.035L38.348.6a8.157 8.157 0 01-2.602 3.79l-.015.012a3.882 3.882 0 01-.867.621l-.021.01v.015a14.998 14.998 0 004.67-1.27l-.094.038v.015a13.234 13.234 0 01-2.721 3.123l-.021.017c-.42.339-.842.677-1.262 1a23.448 23.448 0 01-.397 5.348l.023-.146c-2.019 9.066-7.37 15.223-15.837 17.87-2.009.597-4.318.941-6.707.941-1.675 0-3.31-.169-4.889-.491l.157.027a30.287 30.287 0 01-4.951-1.631l.2.076A19.495 19.495 0 01.638 28.73l.087.05c-.237-.139-.473-.292-.71-.431a14.064 14.064 0 002.62.09l-.038.002c.796-.123 1.575-.092 2.309-.246a16.55 16.55 0 004.934-1.798l-.084.043a9.196 9.196 0 002.2-1.44l-.01.009a7.026 7.026 0 01-2.454-.447l.049.016c-2.432-.84-4.308-2.73-5.112-5.114l-.017-.057a8.014 8.014 0 003.666-.183l-.056.014a5.792 5.792 0 01-2.659-1.073l.016.011c-2.296-1.372-3.81-3.845-3.81-6.671 0-.084.001-.168.004-.252v.012c.277.123.553.262.828.385.486.204 1.055.37 1.646.471l.047.007a2.17 2.17 0 001.119.09l-.013.002h-.04c-.406-.462-1.07-.785-1.479-1.293a8.219 8.219 0 01-2.036-5.429c0-.673.081-1.327.232-1.954l-.012.056a9.197 9.197 0 01.892-2.154l-.024.045c.014 0 .026.015.04.015.216.319.457.597.726.843l.004.003c.716.862 1.505 1.62 2.371 2.283l.035.026a23.59 23.59 0 009.721 4.741l.159.03c1.084.287 2.333.46 3.619.477h.011a7.39 7.39 0 01-.224-1.827c0-.703.096-1.383.275-2.028l-.013.053A7.987 7.987 0 0123.982.709l.051-.02a8.701 8.701 0 011.736-.544l.058-.01c.326-.046.656-.077.984-.123z"/></symbol><symbol id="icon-ALARM" viewBox="0 0 32 32"><path d="M30.74 10c-1.624-3.714-4.528-6.617-8.142-8.2l-.101-.04A5.828 5.828 0 0126.133.498a5.868 5.868 0 014.598 9.514L30.74 10zm-.24 6.5v.002c0 3.854-1.509 7.355-3.969 9.944l.006-.006 2.029 2.03A1.481 1.481 0 0127.518 31h-.001a1.506 1.506 0 01-1.049-.43l-2.178-2.18A14.35 14.35 0 0116 31a14.4 14.4 0 01-8.322-2.631l.046.031-2.163 2.16a1.5 1.5 0 11-2.122-2.12l2.012-2.01a14.438 14.438 0 01-3.941-9.936C1.51 8.489 8 1.999 16.005 1.999S30.5 8.489 30.5 16.494v.006zM16 5C9.649 5 4.5 10.149 4.5 16.5S9.649 28 16 28s11.5-5.149 11.5-11.5S22.351 5 16 5zm6 13h-6a1.5 1.5 0 01-1.5-1.5v-8a1.5 1.5 0 013 0V15H22a1.5 1.5 0 010 3zM1.287 10.21A5.96 5.96 0 01.003 6.5 6 6 0 016 .5h.012c1.402 0 2.691.486 3.706 1.299l-.012-.009c-3.797 1.655-6.765 4.622-8.379 8.317l-.04.103z"/></symbol><symbol id="icon-BOOK" viewBox="0 0 32 32"><path d="M31.065 25.89l-14.471 5.99a1.52 1.52 0 01-1.198-.004l.01.004L.935 25.89A1.503 1.503 0 010 24.5v-23A1.5 1.5 0 011.5 0c.206 0 .403.04.583.114L2.073.11c.001.006.006.01.012.01h.001L16 5.88 29.911.12h.001a.012.012 0 00.012-.01c.17-.07.367-.11.573-.11a1.5 1.5 0 011.5 1.5v23.002c0 .624-.381 1.158-.922 1.385l-.01.004zM14.5 8.5L3 3.74V23.5l11.5 4.76V8.5zM29 3.74L17.5 8.5v19.76L29 23.5V3.74zm-9.121 6.89l5.5-2.5c.183-.081.396-.129.62-.13h.01a1.5 1.5 0 01.62 2.866l-.009.004-5.5 2.5a1.575 1.575 0 01-.62.13h-.011a1.5 1.5 0 01-.62-2.866l.009-.004zm0 5.5l5.5-2.5c.183-.081.396-.129.62-.13h.01a1.5 1.5 0 01.62 2.866l-.009.004-5.5 2.5v-.01a1.43 1.43 0 01-.62.14h-.011a1.5 1.5 0 01-.62-2.866l.009-.004zm0 5.5l5.5-2.5c.183-.081.396-.129.62-.13h.01a1.5 1.5 0 01.62 2.866l-.009.004-5.5 2.5a1.575 1.575 0 01-.62.13h-.011a1.5 1.5 0 01-.62-2.866l.009-.004zM6 8c.225.002.438.049.631.134l-.01-.004 5.5 2.5a1.5 1.5 0 01-.611 2.87h-.011.001a1.578 1.578 0 01-.631-.134l.01.004-5.5-2.5A1.5 1.5 0 015.99 8h.011H6zm0 5.5c.225.002.438.049.631.134l-.01-.004 5.5 2.5A1.5 1.5 0 0111.51 19h-.011.001-.002c-.225 0-.438-.052-.628-.144l.009.004v.01l-5.5-2.5a1.5 1.5 0 01.611-2.87h.011H6zM6 19c.225.002.438.049.631.134l-.01-.004 5.5 2.5a1.5 1.5 0 01-.611 2.87h-.011.001a1.578 1.578 0 01-.631-.134l.01.004-5.5-2.5A1.5 1.5 0 015.99 19h.011H6z"/></symbol><symbol id="icon-COMPUTER-_-OK" viewBox="0 0 32 32"><path d="M30.452 25.29h-9.806v2.581l2.065 2.065v.516H9.292v-.516l2.065-2.065V25.29H1.551a1.548 1.548 0 01-1.548-1.548V3.097c0-.855.693-1.548 1.548-1.548h28.903c.855 0 1.548.693 1.548 1.548v20.645c0 .855-.693 1.548-1.548 1.548zm-.517-21.677H2.064v17.548h27.871V3.613zm-17.032 7.226c.427.001.814.174 1.094.454l.97.97 3.035-3.035a1.548 1.548 0 112.189 2.187l-.001.001-4.129 4.129c-.28.28-.667.453-1.094.453s-.814-.173-1.094-.453l-2.065-2.065a1.547 1.547 0 011.094-2.642z"/></symbol><symbol id="icon-HOME" viewBox="0 0 32 32"><path d="M32 16.5v.006a1.492 1.492 0 01-2.521 1.083l.001.001v.01L16.003 4.12 2.557 17.57A1.5 1.5 0 01.004 16.5v-.007c0-.422.177-.803.46-1.072l.001-.001L14.923.96A1.505 1.505 0 0116.004.5h.092c.023 0 .045.01.068.01.371.04.696.213.932.469l.001.001 5.9 5.9V5.5a1.5 1.5 0 013 0v4.38l5.6 5.6c.25.265.403.623.403 1.017v.003zM29 19v10.5a1.5 1.5 0 01-1.5 1.5h-3V19h-6v12h-14A1.5 1.5 0 013 29.5V19L16 6zm-15.5 0h-6v6h6v-6z"/></symbol><symbol id="icon-IMAGE" viewBox="0 0 32 32"><path d="M30.5 32h-29A1.5 1.5 0 010 30.5v-29A1.5 1.5 0 011.5 0h29A1.5 1.5 0 0132 1.5v29a1.5 1.5 0 01-1.5 1.5zM29 3H3v26h26V3zM6.5 4.5H12a1.5 1.5 0 010 3H7.5V12a1.5 1.5 0 01-3 0V4.5h2zM4.5 20a1.5 1.5 0 013 0v4.5H12a1.5 1.5 0 010 3H4.5V20zM20 4.5h7.5V12a1.5 1.5 0 01-3 0V7.5H20a1.5 1.5 0 010-3zm0 20h4.5V20a1.5 1.5 0 013 0v7.5H20a1.5 1.5 0 010-3z"/></symbol><symbol id="icon-LINE-GRAPH" viewBox="0 0 32 32"><path d="M30.5 32h-29A1.5 1.5 0 010 30.5v-29A1.5 1.5 0 011.5 0h29A1.5 1.5 0 0132 1.5v29a1.5 1.5 0 01-1.5 1.5zM29 3H3v26h26V3zM5.215 16.24l4-2.5a1.518 1.518 0 011.631.033l-.006-.004h.006l6.631 4.42 7.638-5.4a1.501 1.501 0 011.767 2.427l-.004.003-8.5 6c-.242.18-.547.289-.878.29a1.494 1.494 0 01-.865-.283l.004.003-6.657-4.43-3.135 1.95c-.236.169-.529.27-.847.27h-.003a1.5 1.5 0 01-.788-2.776l.006-.004z"/></symbol><symbol id="icon-MAGNIFYING-GLASS" viewBox="0 0 32 32"><path d="M31.111 26.862a3.002 3.002 0 01-4.25 4.236l.001.001-8.769-8.78a11.896 11.896 0 01-6.132 1.68c-6.645 0-12.032-5.387-12.032-12.032S5.316-.065 11.961-.065c6.645 0 12.032 5.387 12.032 12.032 0 2.255-.62 4.365-1.7 6.169l.03-.055 8.788 8.78zm-19.1-23.846a8.987 8.987 0 108.987 8.987 8.993 8.993 0 00-8.987-8.987z"/></symbol><symbol id="icon-SHOPPING-CART" viewBox="0 0 32 32"><path d="M31.201 9.076l-4.412 9.784c-.22.488-.689.829-1.241.861h-.004l-12.665.845.729 2.094h13.804a2.935 2.935 0 11-2.935 2.937H10.78a2.935 2.935 0 11-2.935-2.937h2.65L4.838 6.517H1.476a1.468 1.468 0 010-2.936h4.412c.637.005 1.177.41 1.384.975l.003.01.854 2.442h21.727c.811 0 1.468.657 1.469 1.467-.005.217-.05.423-.129.611l.004-.011zm-22.04.866l2.704 7.75 12.612-.841 3.113-6.909H9.161z"/></symbol></defs></svg>